<mxfile host="app.diagrams.net" modified="2024-04-16T05:40:36.615Z" agent="Mozilla/5.0 (Windows NT 10.0; Win64; x64) AppleWebKit/537.36 (KHTML, like Gecko) Chrome/123.0.0.0 Safari/537.36 Edg/123.0.0.0" etag="9v1QftgeTh9gNqWEv8uF" version="24.2.5" type="device">
  <diagram name="Страница — 1" id="nF5H6JVhzGUnP4vW1j2q">
    <mxGraphModel dx="4429" dy="1769" grid="0" gridSize="10" guides="1" tooltips="1" connect="1" arrows="1" fold="1" page="0" pageScale="1" pageWidth="827" pageHeight="1169" math="0" shadow="0">
      <root>
        <mxCell id="0" />
        <mxCell id="1" parent="0" />
        <mxCell id="LKASRwjgVrRE4esf6VD6-44" style="edgeStyle=none;curved=1;rounded=0;orthogonalLoop=1;jettySize=auto;html=1;exitX=0;exitY=1;exitDx=0;exitDy=0;entryX=1;entryY=0;entryDx=0;entryDy=0;fontSize=12;startSize=8;endSize=8;" edge="1" parent="1" source="LKASRwjgVrRE4esf6VD6-1" target="LKASRwjgVrRE4esf6VD6-2">
          <mxGeometry relative="1" as="geometry" />
        </mxCell>
        <mxCell id="LKASRwjgVrRE4esf6VD6-1" value="" style="ellipse;whiteSpace=wrap;html=1;" vertex="1" parent="1">
          <mxGeometry x="-529" y="296" width="80" height="80" as="geometry" />
        </mxCell>
        <mxCell id="LKASRwjgVrRE4esf6VD6-42" style="edgeStyle=none;curved=1;rounded=0;orthogonalLoop=1;jettySize=auto;html=1;exitX=1;exitY=0.5;exitDx=0;exitDy=0;entryX=0;entryY=0.5;entryDx=0;entryDy=0;fontSize=12;startSize=8;endSize=8;" edge="1" parent="1" source="LKASRwjgVrRE4esf6VD6-2" target="LKASRwjgVrRE4esf6VD6-3">
          <mxGeometry relative="1" as="geometry" />
        </mxCell>
        <mxCell id="LKASRwjgVrRE4esf6VD6-2" value="" style="ellipse;whiteSpace=wrap;html=1;" vertex="1" parent="1">
          <mxGeometry x="-670" y="413" width="80" height="80" as="geometry" />
        </mxCell>
        <mxCell id="LKASRwjgVrRE4esf6VD6-37" style="edgeStyle=none;curved=1;rounded=0;orthogonalLoop=1;jettySize=auto;html=1;exitX=0;exitY=1;exitDx=0;exitDy=0;fontSize=12;startSize=8;endSize=8;" edge="1" parent="1" source="LKASRwjgVrRE4esf6VD6-3" target="LKASRwjgVrRE4esf6VD6-4">
          <mxGeometry relative="1" as="geometry" />
        </mxCell>
        <mxCell id="LKASRwjgVrRE4esf6VD6-3" value="" style="ellipse;whiteSpace=wrap;html=1;" vertex="1" parent="1">
          <mxGeometry x="-399" y="413" width="80" height="80" as="geometry" />
        </mxCell>
        <mxCell id="LKASRwjgVrRE4esf6VD6-29" style="edgeStyle=none;curved=1;rounded=0;orthogonalLoop=1;jettySize=auto;html=1;exitX=0;exitY=1;exitDx=0;exitDy=0;fontSize=12;startSize=8;endSize=8;" edge="1" parent="1" source="LKASRwjgVrRE4esf6VD6-4" target="LKASRwjgVrRE4esf6VD6-7">
          <mxGeometry relative="1" as="geometry" />
        </mxCell>
        <mxCell id="LKASRwjgVrRE4esf6VD6-34" style="edgeStyle=none;curved=1;rounded=0;orthogonalLoop=1;jettySize=auto;html=1;exitX=1;exitY=0.5;exitDx=0;exitDy=0;entryX=0;entryY=0.5;entryDx=0;entryDy=0;fontSize=12;startSize=8;endSize=8;" edge="1" parent="1" source="LKASRwjgVrRE4esf6VD6-4" target="LKASRwjgVrRE4esf6VD6-10">
          <mxGeometry relative="1" as="geometry" />
        </mxCell>
        <mxCell id="LKASRwjgVrRE4esf6VD6-39" style="edgeStyle=none;curved=1;rounded=0;orthogonalLoop=1;jettySize=auto;html=1;exitX=0;exitY=0;exitDx=0;exitDy=0;fontSize=12;startSize=8;endSize=8;" edge="1" parent="1" source="LKASRwjgVrRE4esf6VD6-4" target="LKASRwjgVrRE4esf6VD6-2">
          <mxGeometry relative="1" as="geometry" />
        </mxCell>
        <mxCell id="LKASRwjgVrRE4esf6VD6-4" value="" style="ellipse;whiteSpace=wrap;html=1;" vertex="1" parent="1">
          <mxGeometry x="-529" y="539" width="80" height="80" as="geometry" />
        </mxCell>
        <mxCell id="LKASRwjgVrRE4esf6VD6-31" style="edgeStyle=none;curved=1;rounded=0;orthogonalLoop=1;jettySize=auto;html=1;exitX=1;exitY=0.5;exitDx=0;exitDy=0;entryX=0;entryY=0.5;entryDx=0;entryDy=0;fontSize=12;startSize=8;endSize=8;" edge="1" parent="1" source="LKASRwjgVrRE4esf6VD6-5" target="LKASRwjgVrRE4esf6VD6-4">
          <mxGeometry relative="1" as="geometry" />
        </mxCell>
        <mxCell id="LKASRwjgVrRE4esf6VD6-5" value="" style="ellipse;whiteSpace=wrap;html=1;" vertex="1" parent="1">
          <mxGeometry x="-777" y="539" width="80" height="80" as="geometry" />
        </mxCell>
        <mxCell id="LKASRwjgVrRE4esf6VD6-6" value="" style="ellipse;whiteSpace=wrap;html=1;" vertex="1" parent="1">
          <mxGeometry x="-291" y="539" width="80" height="80" as="geometry" />
        </mxCell>
        <mxCell id="LKASRwjgVrRE4esf6VD6-7" value="" style="ellipse;whiteSpace=wrap;html=1;" vertex="1" parent="1">
          <mxGeometry x="-670" y="697" width="80" height="80" as="geometry" />
        </mxCell>
        <mxCell id="LKASRwjgVrRE4esf6VD6-27" style="edgeStyle=none;curved=1;rounded=0;orthogonalLoop=1;jettySize=auto;html=1;exitX=0.5;exitY=0;exitDx=0;exitDy=0;entryX=1;entryY=1;entryDx=0;entryDy=0;fontSize=12;startSize=8;endSize=8;" edge="1" parent="1" source="LKASRwjgVrRE4esf6VD6-8" target="LKASRwjgVrRE4esf6VD6-4">
          <mxGeometry relative="1" as="geometry" />
        </mxCell>
        <mxCell id="LKASRwjgVrRE4esf6VD6-8" value="" style="ellipse;whiteSpace=wrap;html=1;" vertex="1" parent="1">
          <mxGeometry x="-399" y="705" width="80" height="80" as="geometry" />
        </mxCell>
        <mxCell id="LKASRwjgVrRE4esf6VD6-23" style="edgeStyle=none;curved=1;rounded=0;orthogonalLoop=1;jettySize=auto;html=1;exitX=1;exitY=0.5;exitDx=0;exitDy=0;entryX=0.5;entryY=1;entryDx=0;entryDy=0;fontSize=12;startSize=8;endSize=8;" edge="1" parent="1" source="LKASRwjgVrRE4esf6VD6-9" target="LKASRwjgVrRE4esf6VD6-8">
          <mxGeometry relative="1" as="geometry" />
        </mxCell>
        <mxCell id="LKASRwjgVrRE4esf6VD6-9" value="" style="ellipse;whiteSpace=wrap;html=1;" vertex="1" parent="1">
          <mxGeometry x="-529" y="841" width="80" height="80" as="geometry" />
        </mxCell>
        <mxCell id="LKASRwjgVrRE4esf6VD6-10" value="" style="ellipse;whiteSpace=wrap;html=1;" vertex="1" parent="1">
          <mxGeometry x="-288.5" y="541.5" width="75" height="75" as="geometry" />
        </mxCell>
        <mxCell id="LKASRwjgVrRE4esf6VD6-11" value="B" style="text;html=1;align=center;verticalAlign=middle;whiteSpace=wrap;rounded=0;fontSize=16;" vertex="1" parent="1">
          <mxGeometry x="-517" y="321" width="60" height="30" as="geometry" />
        </mxCell>
        <mxCell id="LKASRwjgVrRE4esf6VD6-12" value="C" style="text;html=1;align=center;verticalAlign=middle;whiteSpace=wrap;rounded=0;fontSize=16;" vertex="1" parent="1">
          <mxGeometry x="-660" y="438" width="60" height="30" as="geometry" />
        </mxCell>
        <mxCell id="LKASRwjgVrRE4esf6VD6-13" value="N" style="text;html=1;align=center;verticalAlign=middle;whiteSpace=wrap;rounded=0;fontSize=16;" vertex="1" parent="1">
          <mxGeometry x="-389" y="438" width="60" height="30" as="geometry" />
        </mxCell>
        <mxCell id="LKASRwjgVrRE4esf6VD6-14" value="M&lt;span style=&quot;color: rgba(0, 0, 0, 0); font-family: monospace; font-size: 0px; text-align: start; text-wrap: nowrap;&quot;&gt;%3CmxGraphModel%3E%3Croot%3E%3CmxCell%20id%3D%220%22%2F%3E%3CmxCell%20id%3D%221%22%20parent%3D%220%22%2F%3E%3CmxCell%20id%3D%222%22%20value%3D%22N%22%20style%3D%22text%3Bhtml%3D1%3Balign%3Dcenter%3BverticalAlign%3Dmiddle%3BwhiteSpace%3Dwrap%3Brounded%3D0%3BfontSize%3D16%3B%22%20vertex%3D%221%22%20parent%3D%221%22%3E%3CmxGeometry%20x%3D%22-389%22%20y%3D%22438%22%20width%3D%2260%22%20height%3D%2230%22%20as%3D%22geometry%22%2F%3E%3C%2FmxCell%3E%3C%2Froot%3E%3C%2FmxGraphModel%3E&lt;/span&gt;" style="text;html=1;align=center;verticalAlign=middle;whiteSpace=wrap;rounded=0;fontSize=16;" vertex="1" parent="1">
          <mxGeometry x="-517" y="569" width="60" height="30" as="geometry" />
        </mxCell>
        <mxCell id="LKASRwjgVrRE4esf6VD6-15" value="F" style="text;html=1;align=center;verticalAlign=middle;whiteSpace=wrap;rounded=0;fontSize=16;" vertex="1" parent="1">
          <mxGeometry x="-281" y="564" width="60" height="30" as="geometry" />
        </mxCell>
        <mxCell id="LKASRwjgVrRE4esf6VD6-16" value="V" style="text;html=1;align=center;verticalAlign=middle;whiteSpace=wrap;rounded=0;fontSize=16;" vertex="1" parent="1">
          <mxGeometry x="-767" y="564" width="60" height="30" as="geometry" />
        </mxCell>
        <mxCell id="LKASRwjgVrRE4esf6VD6-17" value="X" style="text;html=1;align=center;verticalAlign=middle;whiteSpace=wrap;rounded=0;fontSize=16;" vertex="1" parent="1">
          <mxGeometry x="-660" y="722" width="60" height="30" as="geometry" />
        </mxCell>
        <mxCell id="LKASRwjgVrRE4esf6VD6-18" value="S" style="text;html=1;align=center;verticalAlign=middle;whiteSpace=wrap;rounded=0;fontSize=16;" vertex="1" parent="1">
          <mxGeometry x="-389" y="730" width="60" height="30" as="geometry" />
        </mxCell>
        <mxCell id="LKASRwjgVrRE4esf6VD6-19" value="Z" style="text;html=1;align=center;verticalAlign=middle;whiteSpace=wrap;rounded=0;fontSize=16;" vertex="1" parent="1">
          <mxGeometry x="-517" y="870" width="60" height="30" as="geometry" />
        </mxCell>
        <mxCell id="LKASRwjgVrRE4esf6VD6-21" style="edgeStyle=none;curved=1;rounded=0;orthogonalLoop=1;jettySize=auto;html=1;exitX=0;exitY=0.5;exitDx=0;exitDy=0;entryX=0.715;entryY=0.967;entryDx=0;entryDy=0;entryPerimeter=0;fontSize=12;startSize=8;endSize=8;" edge="1" parent="1" source="LKASRwjgVrRE4esf6VD6-9" target="LKASRwjgVrRE4esf6VD6-7">
          <mxGeometry relative="1" as="geometry" />
        </mxCell>
        <mxCell id="LKASRwjgVrRE4esf6VD6-22" value="v" style="text;html=1;align=center;verticalAlign=middle;resizable=0;points=[];autosize=1;strokeColor=none;fillColor=none;fontSize=16;" vertex="1" parent="1">
          <mxGeometry x="-581.5" y="805.5" width="26" height="31" as="geometry" />
        </mxCell>
        <mxCell id="LKASRwjgVrRE4esf6VD6-24" value="^" style="text;html=1;align=center;verticalAlign=middle;resizable=0;points=[];autosize=1;strokeColor=none;fillColor=none;fontSize=16;" vertex="1" parent="1">
          <mxGeometry x="-418.5" y="804.5" width="26" height="31" as="geometry" />
        </mxCell>
        <mxCell id="LKASRwjgVrRE4esf6VD6-25" style="edgeStyle=none;curved=1;rounded=0;orthogonalLoop=1;jettySize=auto;html=1;exitX=1;exitY=0.5;exitDx=0;exitDy=0;entryX=0.038;entryY=0.378;entryDx=0;entryDy=0;entryPerimeter=0;fontSize=12;startSize=8;endSize=8;" edge="1" parent="1" source="LKASRwjgVrRE4esf6VD6-7" target="LKASRwjgVrRE4esf6VD6-8">
          <mxGeometry relative="1" as="geometry" />
        </mxCell>
        <mxCell id="LKASRwjgVrRE4esf6VD6-26" value="0" style="text;html=1;align=center;verticalAlign=middle;resizable=0;points=[];autosize=1;strokeColor=none;fillColor=none;fontSize=16;" vertex="1" parent="1">
          <mxGeometry x="-506.5" y="708.5" width="27" height="31" as="geometry" />
        </mxCell>
        <mxCell id="LKASRwjgVrRE4esf6VD6-28" value="1" style="text;html=1;align=center;verticalAlign=middle;resizable=0;points=[];autosize=1;strokeColor=none;fillColor=none;fontSize=16;" vertex="1" parent="1">
          <mxGeometry x="-409" y="628.5" width="27" height="31" as="geometry" />
        </mxCell>
        <mxCell id="LKASRwjgVrRE4esf6VD6-30" value="1" style="text;html=1;align=center;verticalAlign=middle;resizable=0;points=[];autosize=1;strokeColor=none;fillColor=none;fontSize=16;" vertex="1" parent="1">
          <mxGeometry x="-581.5" y="628.5" width="27" height="31" as="geometry" />
        </mxCell>
        <mxCell id="LKASRwjgVrRE4esf6VD6-33" value="^" style="text;html=1;align=center;verticalAlign=middle;resizable=0;points=[];autosize=1;strokeColor=none;fillColor=none;fontSize=16;" vertex="1" parent="1">
          <mxGeometry x="-628.5" y="549.5" width="26" height="31" as="geometry" />
        </mxCell>
        <mxCell id="LKASRwjgVrRE4esf6VD6-36" value="^" style="text;html=1;align=center;verticalAlign=middle;resizable=0;points=[];autosize=1;strokeColor=none;fillColor=none;fontSize=16;" vertex="1" parent="1">
          <mxGeometry x="-368.5" y="552.5" width="26" height="31" as="geometry" />
        </mxCell>
        <mxCell id="LKASRwjgVrRE4esf6VD6-38" value="1" style="text;html=1;align=center;verticalAlign=middle;resizable=0;points=[];autosize=1;strokeColor=none;fillColor=none;fontSize=16;" vertex="1" parent="1">
          <mxGeometry x="-449" y="481" width="27" height="31" as="geometry" />
        </mxCell>
        <mxCell id="LKASRwjgVrRE4esf6VD6-40" value="0" style="text;html=1;align=center;verticalAlign=middle;resizable=0;points=[];autosize=1;strokeColor=none;fillColor=none;fontSize=16;" vertex="1" parent="1">
          <mxGeometry x="-573.5" y="477.5" width="27" height="31" as="geometry" />
        </mxCell>
        <mxCell id="LKASRwjgVrRE4esf6VD6-43" value="0" style="text;html=1;align=center;verticalAlign=middle;resizable=0;points=[];autosize=1;strokeColor=none;fillColor=none;fontSize=16;" vertex="1" parent="1">
          <mxGeometry x="-524.5" y="427.5" width="27" height="31" as="geometry" />
        </mxCell>
        <mxCell id="LKASRwjgVrRE4esf6VD6-45" value="&amp;amp;" style="text;html=1;align=center;verticalAlign=middle;resizable=0;points=[];autosize=1;strokeColor=none;fillColor=none;fontSize=16;" vertex="1" parent="1">
          <mxGeometry x="-593.5" y="360.5" width="29" height="31" as="geometry" />
        </mxCell>
        <mxCell id="LKASRwjgVrRE4esf6VD6-46" style="edgeStyle=none;curved=1;rounded=0;orthogonalLoop=1;jettySize=auto;html=1;exitX=1;exitY=1;exitDx=0;exitDy=0;entryX=0.368;entryY=0.058;entryDx=0;entryDy=0;entryPerimeter=0;fontSize=12;startSize=8;endSize=8;" edge="1" parent="1" source="LKASRwjgVrRE4esf6VD6-1" target="LKASRwjgVrRE4esf6VD6-3">
          <mxGeometry relative="1" as="geometry" />
        </mxCell>
        <mxCell id="LKASRwjgVrRE4esf6VD6-47" value="!" style="text;html=1;align=center;verticalAlign=middle;resizable=0;points=[];autosize=1;strokeColor=none;fillColor=none;fontSize=16;" vertex="1" parent="1">
          <mxGeometry x="-414.5" y="364" width="22" height="31" as="geometry" />
        </mxCell>
        <mxCell id="LKASRwjgVrRE4esf6VD6-49" value="" style="endArrow=classic;html=1;rounded=0;fontSize=12;startSize=8;endSize=8;curved=1;entryX=0.072;entryY=0.172;entryDx=0;entryDy=0;entryPerimeter=0;" edge="1" parent="1" target="LKASRwjgVrRE4esf6VD6-5">
          <mxGeometry width="50" height="50" relative="1" as="geometry">
            <mxPoint x="-832" y="494" as="sourcePoint" />
            <mxPoint x="-804" y="525" as="targetPoint" />
          </mxGeometry>
        </mxCell>
        <mxCell id="LKASRwjgVrRE4esf6VD6-50" value="&lt;h1 style=&quot;margin-top: 0px;&quot;&gt;Правила&lt;/h1&gt;&lt;h1 style=&quot;margin-top: 0px;&quot;&gt;V -&amp;gt; ^M&lt;/h1&gt;&lt;h1 style=&quot;margin-top: 0px;&quot;&gt;M -&amp;gt; ^F&lt;/h1&gt;&lt;h1 style=&quot;margin-top: 0px;&quot;&gt;M -&amp;gt; 0C&lt;/h1&gt;&lt;h1 style=&quot;margin-top: 0px;&quot;&gt;M -&amp;gt; 1X&lt;/h1&gt;&lt;h1 style=&quot;margin-top: 0px;&quot;&gt;C -&amp;gt; 0N&lt;/h1&gt;&lt;h1 style=&quot;margin-top: 0px;&quot;&gt;N -&amp;gt; 1M&lt;/h1&gt;&lt;h1 style=&quot;margin-top: 0px;&quot;&gt;B -&amp;gt; !N&lt;/h1&gt;&lt;h1 style=&quot;margin-top: 0px;&quot;&gt;B -&amp;gt; &amp;amp;C&lt;/h1&gt;&lt;h1 style=&quot;margin-top: 0px;&quot;&gt;X -&amp;gt; 0S&lt;/h1&gt;&lt;h1 style=&quot;margin-top: 0px;&quot;&gt;S -&amp;gt; 1M&lt;/h1&gt;&lt;h1 style=&quot;margin-top: 0px;&quot;&gt;Z -&amp;gt; vX&lt;/h1&gt;&lt;h1 style=&quot;margin-top: 0px;&quot;&gt;Z -&amp;gt; ^S&lt;/h1&gt;" style="text;html=1;whiteSpace=wrap;overflow=hidden;rounded=0;" vertex="1" parent="1">
          <mxGeometry x="-822" y="966" width="156" height="589" as="geometry" />
        </mxCell>
        <mxCell id="LKASRwjgVrRE4esf6VD6-53" value="Начальный автомат" style="text;html=1;align=center;verticalAlign=middle;whiteSpace=wrap;rounded=0;fontSize=25;" vertex="1" parent="1">
          <mxGeometry x="-850" y="251" width="202" height="81" as="geometry" />
        </mxCell>
        <mxCell id="LKASRwjgVrRE4esf6VD6-56" style="edgeStyle=none;curved=1;rounded=0;orthogonalLoop=1;jettySize=auto;html=1;exitX=1;exitY=0.5;exitDx=0;exitDy=0;entryX=0;entryY=0.5;entryDx=0;entryDy=0;fontSize=12;startSize=8;endSize=8;" edge="1" parent="1" source="LKASRwjgVrRE4esf6VD6-57" target="LKASRwjgVrRE4esf6VD6-59">
          <mxGeometry relative="1" as="geometry" />
        </mxCell>
        <mxCell id="LKASRwjgVrRE4esf6VD6-57" value="" style="ellipse;whiteSpace=wrap;html=1;" vertex="1" parent="1">
          <mxGeometry x="39" y="426" width="80" height="80" as="geometry" />
        </mxCell>
        <mxCell id="LKASRwjgVrRE4esf6VD6-58" style="edgeStyle=none;curved=1;rounded=0;orthogonalLoop=1;jettySize=auto;html=1;exitX=0;exitY=1;exitDx=0;exitDy=0;fontSize=12;startSize=8;endSize=8;" edge="1" parent="1" source="LKASRwjgVrRE4esf6VD6-59" target="LKASRwjgVrRE4esf6VD6-63">
          <mxGeometry relative="1" as="geometry" />
        </mxCell>
        <mxCell id="LKASRwjgVrRE4esf6VD6-59" value="" style="ellipse;whiteSpace=wrap;html=1;" vertex="1" parent="1">
          <mxGeometry x="310" y="426" width="80" height="80" as="geometry" />
        </mxCell>
        <mxCell id="LKASRwjgVrRE4esf6VD6-60" style="edgeStyle=none;curved=1;rounded=0;orthogonalLoop=1;jettySize=auto;html=1;exitX=0;exitY=1;exitDx=0;exitDy=0;fontSize=12;startSize=8;endSize=8;" edge="1" parent="1" source="LKASRwjgVrRE4esf6VD6-63" target="LKASRwjgVrRE4esf6VD6-67">
          <mxGeometry relative="1" as="geometry" />
        </mxCell>
        <mxCell id="LKASRwjgVrRE4esf6VD6-61" style="edgeStyle=none;curved=1;rounded=0;orthogonalLoop=1;jettySize=auto;html=1;exitX=1;exitY=0.5;exitDx=0;exitDy=0;entryX=0;entryY=0.5;entryDx=0;entryDy=0;fontSize=12;startSize=8;endSize=8;" edge="1" parent="1" source="LKASRwjgVrRE4esf6VD6-63" target="LKASRwjgVrRE4esf6VD6-72">
          <mxGeometry relative="1" as="geometry" />
        </mxCell>
        <mxCell id="LKASRwjgVrRE4esf6VD6-62" style="edgeStyle=none;curved=1;rounded=0;orthogonalLoop=1;jettySize=auto;html=1;exitX=0;exitY=0;exitDx=0;exitDy=0;fontSize=12;startSize=8;endSize=8;" edge="1" parent="1" source="LKASRwjgVrRE4esf6VD6-63" target="LKASRwjgVrRE4esf6VD6-57">
          <mxGeometry relative="1" as="geometry" />
        </mxCell>
        <mxCell id="LKASRwjgVrRE4esf6VD6-63" value="" style="ellipse;whiteSpace=wrap;html=1;" vertex="1" parent="1">
          <mxGeometry x="180" y="552" width="80" height="80" as="geometry" />
        </mxCell>
        <mxCell id="LKASRwjgVrRE4esf6VD6-64" style="edgeStyle=none;curved=1;rounded=0;orthogonalLoop=1;jettySize=auto;html=1;exitX=1;exitY=0.5;exitDx=0;exitDy=0;entryX=0;entryY=0.5;entryDx=0;entryDy=0;fontSize=12;startSize=8;endSize=8;" edge="1" parent="1" source="LKASRwjgVrRE4esf6VD6-65" target="LKASRwjgVrRE4esf6VD6-63">
          <mxGeometry relative="1" as="geometry" />
        </mxCell>
        <mxCell id="LKASRwjgVrRE4esf6VD6-65" value="" style="ellipse;whiteSpace=wrap;html=1;" vertex="1" parent="1">
          <mxGeometry x="-68" y="552" width="80" height="80" as="geometry" />
        </mxCell>
        <mxCell id="LKASRwjgVrRE4esf6VD6-66" value="" style="ellipse;whiteSpace=wrap;html=1;" vertex="1" parent="1">
          <mxGeometry x="418" y="552" width="80" height="80" as="geometry" />
        </mxCell>
        <mxCell id="LKASRwjgVrRE4esf6VD6-67" value="" style="ellipse;whiteSpace=wrap;html=1;" vertex="1" parent="1">
          <mxGeometry x="39" y="710" width="80" height="80" as="geometry" />
        </mxCell>
        <mxCell id="LKASRwjgVrRE4esf6VD6-68" style="edgeStyle=none;curved=1;rounded=0;orthogonalLoop=1;jettySize=auto;html=1;exitX=0.5;exitY=0;exitDx=0;exitDy=0;entryX=1;entryY=1;entryDx=0;entryDy=0;fontSize=12;startSize=8;endSize=8;" edge="1" parent="1" source="LKASRwjgVrRE4esf6VD6-69" target="LKASRwjgVrRE4esf6VD6-63">
          <mxGeometry relative="1" as="geometry" />
        </mxCell>
        <mxCell id="LKASRwjgVrRE4esf6VD6-69" value="" style="ellipse;whiteSpace=wrap;html=1;" vertex="1" parent="1">
          <mxGeometry x="310" y="718" width="80" height="80" as="geometry" />
        </mxCell>
        <mxCell id="LKASRwjgVrRE4esf6VD6-72" value="" style="ellipse;whiteSpace=wrap;html=1;" vertex="1" parent="1">
          <mxGeometry x="420.5" y="554.5" width="75" height="75" as="geometry" />
        </mxCell>
        <mxCell id="LKASRwjgVrRE4esf6VD6-74" value="C" style="text;html=1;align=center;verticalAlign=middle;whiteSpace=wrap;rounded=0;fontSize=16;" vertex="1" parent="1">
          <mxGeometry x="49" y="451" width="60" height="30" as="geometry" />
        </mxCell>
        <mxCell id="LKASRwjgVrRE4esf6VD6-75" value="N" style="text;html=1;align=center;verticalAlign=middle;whiteSpace=wrap;rounded=0;fontSize=16;" vertex="1" parent="1">
          <mxGeometry x="320" y="451" width="60" height="30" as="geometry" />
        </mxCell>
        <mxCell id="LKASRwjgVrRE4esf6VD6-76" value="M&lt;span style=&quot;color: rgba(0, 0, 0, 0); font-family: monospace; font-size: 0px; text-align: start; text-wrap: nowrap;&quot;&gt;%3CmxGraphModel%3E%3Croot%3E%3CmxCell%20id%3D%220%22%2F%3E%3CmxCell%20id%3D%221%22%20parent%3D%220%22%2F%3E%3CmxCell%20id%3D%222%22%20value%3D%22N%22%20style%3D%22text%3Bhtml%3D1%3Balign%3Dcenter%3BverticalAlign%3Dmiddle%3BwhiteSpace%3Dwrap%3Brounded%3D0%3BfontSize%3D16%3B%22%20vertex%3D%221%22%20parent%3D%221%22%3E%3CmxGeometry%20x%3D%22-389%22%20y%3D%22438%22%20width%3D%2260%22%20height%3D%2230%22%20as%3D%22geometry%22%2F%3E%3C%2FmxCell%3E%3C%2Froot%3E%3C%2FmxGraphModel%3E&lt;/span&gt;" style="text;html=1;align=center;verticalAlign=middle;whiteSpace=wrap;rounded=0;fontSize=16;" vertex="1" parent="1">
          <mxGeometry x="192" y="582" width="60" height="30" as="geometry" />
        </mxCell>
        <mxCell id="LKASRwjgVrRE4esf6VD6-77" value="F" style="text;html=1;align=center;verticalAlign=middle;whiteSpace=wrap;rounded=0;fontSize=16;" vertex="1" parent="1">
          <mxGeometry x="428" y="577" width="60" height="30" as="geometry" />
        </mxCell>
        <mxCell id="LKASRwjgVrRE4esf6VD6-78" value="V" style="text;html=1;align=center;verticalAlign=middle;whiteSpace=wrap;rounded=0;fontSize=16;" vertex="1" parent="1">
          <mxGeometry x="-58" y="577" width="60" height="30" as="geometry" />
        </mxCell>
        <mxCell id="LKASRwjgVrRE4esf6VD6-79" value="X" style="text;html=1;align=center;verticalAlign=middle;whiteSpace=wrap;rounded=0;fontSize=16;" vertex="1" parent="1">
          <mxGeometry x="49" y="735" width="60" height="30" as="geometry" />
        </mxCell>
        <mxCell id="LKASRwjgVrRE4esf6VD6-80" value="S" style="text;html=1;align=center;verticalAlign=middle;whiteSpace=wrap;rounded=0;fontSize=16;" vertex="1" parent="1">
          <mxGeometry x="320" y="743" width="60" height="30" as="geometry" />
        </mxCell>
        <mxCell id="LKASRwjgVrRE4esf6VD6-85" style="edgeStyle=none;curved=1;rounded=0;orthogonalLoop=1;jettySize=auto;html=1;exitX=1;exitY=0.5;exitDx=0;exitDy=0;entryX=0.038;entryY=0.378;entryDx=0;entryDy=0;entryPerimeter=0;fontSize=12;startSize=8;endSize=8;" edge="1" parent="1" source="LKASRwjgVrRE4esf6VD6-67" target="LKASRwjgVrRE4esf6VD6-69">
          <mxGeometry relative="1" as="geometry" />
        </mxCell>
        <mxCell id="LKASRwjgVrRE4esf6VD6-86" value="0" style="text;html=1;align=center;verticalAlign=middle;resizable=0;points=[];autosize=1;strokeColor=none;fillColor=none;fontSize=16;" vertex="1" parent="1">
          <mxGeometry x="202.5" y="721.5" width="27" height="31" as="geometry" />
        </mxCell>
        <mxCell id="LKASRwjgVrRE4esf6VD6-87" value="1" style="text;html=1;align=center;verticalAlign=middle;resizable=0;points=[];autosize=1;strokeColor=none;fillColor=none;fontSize=16;" vertex="1" parent="1">
          <mxGeometry x="300" y="641.5" width="27" height="31" as="geometry" />
        </mxCell>
        <mxCell id="LKASRwjgVrRE4esf6VD6-88" value="1" style="text;html=1;align=center;verticalAlign=middle;resizable=0;points=[];autosize=1;strokeColor=none;fillColor=none;fontSize=16;" vertex="1" parent="1">
          <mxGeometry x="127.5" y="641.5" width="27" height="31" as="geometry" />
        </mxCell>
        <mxCell id="LKASRwjgVrRE4esf6VD6-89" value="^" style="text;html=1;align=center;verticalAlign=middle;resizable=0;points=[];autosize=1;strokeColor=none;fillColor=none;fontSize=16;" vertex="1" parent="1">
          <mxGeometry x="80.5" y="562.5" width="26" height="31" as="geometry" />
        </mxCell>
        <mxCell id="LKASRwjgVrRE4esf6VD6-90" value="^" style="text;html=1;align=center;verticalAlign=middle;resizable=0;points=[];autosize=1;strokeColor=none;fillColor=none;fontSize=16;" vertex="1" parent="1">
          <mxGeometry x="340.5" y="565.5" width="26" height="31" as="geometry" />
        </mxCell>
        <mxCell id="LKASRwjgVrRE4esf6VD6-91" value="1" style="text;html=1;align=center;verticalAlign=middle;resizable=0;points=[];autosize=1;strokeColor=none;fillColor=none;fontSize=16;" vertex="1" parent="1">
          <mxGeometry x="260" y="494" width="27" height="31" as="geometry" />
        </mxCell>
        <mxCell id="LKASRwjgVrRE4esf6VD6-92" value="0" style="text;html=1;align=center;verticalAlign=middle;resizable=0;points=[];autosize=1;strokeColor=none;fillColor=none;fontSize=16;" vertex="1" parent="1">
          <mxGeometry x="135.5" y="490.5" width="27" height="31" as="geometry" />
        </mxCell>
        <mxCell id="LKASRwjgVrRE4esf6VD6-93" value="0" style="text;html=1;align=center;verticalAlign=middle;resizable=0;points=[];autosize=1;strokeColor=none;fillColor=none;fontSize=16;" vertex="1" parent="1">
          <mxGeometry x="184.5" y="440.5" width="27" height="31" as="geometry" />
        </mxCell>
        <mxCell id="LKASRwjgVrRE4esf6VD6-97" value="" style="endArrow=classic;html=1;rounded=0;fontSize=12;startSize=8;endSize=8;curved=1;entryX=0.072;entryY=0.172;entryDx=0;entryDy=0;entryPerimeter=0;" edge="1" parent="1" target="LKASRwjgVrRE4esf6VD6-65">
          <mxGeometry width="50" height="50" relative="1" as="geometry">
            <mxPoint x="-123" y="507" as="sourcePoint" />
            <mxPoint x="-95" y="538" as="targetPoint" />
          </mxGeometry>
        </mxCell>
        <mxCell id="LKASRwjgVrRE4esf6VD6-98" value="После удаления недостижимых состояний" style="text;html=1;align=center;verticalAlign=middle;whiteSpace=wrap;rounded=0;fontSize=25;" vertex="1" parent="1">
          <mxGeometry x="-129" y="246" width="202" height="81" as="geometry" />
        </mxCell>
        <mxCell id="LKASRwjgVrRE4esf6VD6-100" value="&lt;h1 style=&quot;margin-top: 0px;&quot;&gt;Правила&lt;/h1&gt;&lt;h1 style=&quot;margin-top: 0px;&quot;&gt;V -&amp;gt; ^M&lt;/h1&gt;&lt;h1 style=&quot;margin-top: 0px;&quot;&gt;M -&amp;gt; ^F&lt;/h1&gt;&lt;h1 style=&quot;margin-top: 0px;&quot;&gt;M -&amp;gt; 0C&lt;/h1&gt;&lt;h1 style=&quot;margin-top: 0px;&quot;&gt;M -&amp;gt; 1X&lt;/h1&gt;&lt;h1 style=&quot;margin-top: 0px;&quot;&gt;C -&amp;gt; 0N&lt;/h1&gt;&lt;h1 style=&quot;margin-top: 0px;&quot;&gt;N -&amp;gt; 1M&lt;/h1&gt;&lt;h1 style=&quot;margin-top: 0px;&quot;&gt;X -&amp;gt; 0S&lt;/h1&gt;&lt;h1 style=&quot;margin-top: 0px;&quot;&gt;S -&amp;gt; 1M&lt;/h1&gt;" style="text;html=1;whiteSpace=wrap;overflow=hidden;rounded=0;" vertex="1" parent="1">
          <mxGeometry x="10" y="966" width="170" height="418" as="geometry" />
        </mxCell>
        <mxCell id="LKASRwjgVrRE4esf6VD6-134" style="edgeStyle=none;curved=1;rounded=0;orthogonalLoop=1;jettySize=auto;html=1;exitX=1;exitY=0.5;exitDx=0;exitDy=0;entryX=0;entryY=0.5;entryDx=0;entryDy=0;fontSize=12;startSize=8;endSize=8;" edge="1" parent="1" source="LKASRwjgVrRE4esf6VD6-135" target="LKASRwjgVrRE4esf6VD6-137">
          <mxGeometry relative="1" as="geometry" />
        </mxCell>
        <mxCell id="LKASRwjgVrRE4esf6VD6-135" value="" style="ellipse;whiteSpace=wrap;html=1;" vertex="1" parent="1">
          <mxGeometry x="761" y="426" width="80" height="80" as="geometry" />
        </mxCell>
        <mxCell id="LKASRwjgVrRE4esf6VD6-136" style="edgeStyle=none;curved=1;rounded=0;orthogonalLoop=1;jettySize=auto;html=1;exitX=0;exitY=1;exitDx=0;exitDy=0;fontSize=12;startSize=8;endSize=8;" edge="1" parent="1" source="LKASRwjgVrRE4esf6VD6-137" target="LKASRwjgVrRE4esf6VD6-141">
          <mxGeometry relative="1" as="geometry" />
        </mxCell>
        <mxCell id="LKASRwjgVrRE4esf6VD6-137" value="" style="ellipse;whiteSpace=wrap;html=1;" vertex="1" parent="1">
          <mxGeometry x="1032" y="426" width="80" height="80" as="geometry" />
        </mxCell>
        <mxCell id="LKASRwjgVrRE4esf6VD6-138" style="edgeStyle=none;curved=1;rounded=0;orthogonalLoop=1;jettySize=auto;html=1;exitX=0;exitY=1;exitDx=0;exitDy=0;fontSize=12;startSize=8;endSize=8;" edge="1" parent="1" source="LKASRwjgVrRE4esf6VD6-141" target="LKASRwjgVrRE4esf6VD6-145">
          <mxGeometry relative="1" as="geometry" />
        </mxCell>
        <mxCell id="LKASRwjgVrRE4esf6VD6-139" style="edgeStyle=none;curved=1;rounded=0;orthogonalLoop=1;jettySize=auto;html=1;exitX=1;exitY=0.5;exitDx=0;exitDy=0;entryX=0;entryY=0.5;entryDx=0;entryDy=0;fontSize=12;startSize=8;endSize=8;" edge="1" parent="1" source="LKASRwjgVrRE4esf6VD6-141" target="LKASRwjgVrRE4esf6VD6-148">
          <mxGeometry relative="1" as="geometry" />
        </mxCell>
        <mxCell id="LKASRwjgVrRE4esf6VD6-140" style="edgeStyle=none;curved=1;rounded=0;orthogonalLoop=1;jettySize=auto;html=1;exitX=0;exitY=0;exitDx=0;exitDy=0;fontSize=12;startSize=8;endSize=8;" edge="1" parent="1" source="LKASRwjgVrRE4esf6VD6-141" target="LKASRwjgVrRE4esf6VD6-135">
          <mxGeometry relative="1" as="geometry" />
        </mxCell>
        <mxCell id="LKASRwjgVrRE4esf6VD6-141" value="" style="ellipse;whiteSpace=wrap;html=1;" vertex="1" parent="1">
          <mxGeometry x="902" y="552" width="80" height="80" as="geometry" />
        </mxCell>
        <mxCell id="LKASRwjgVrRE4esf6VD6-142" style="edgeStyle=none;curved=1;rounded=0;orthogonalLoop=1;jettySize=auto;html=1;exitX=1;exitY=0.5;exitDx=0;exitDy=0;entryX=0;entryY=0.5;entryDx=0;entryDy=0;fontSize=12;startSize=8;endSize=8;" edge="1" parent="1" source="LKASRwjgVrRE4esf6VD6-143" target="LKASRwjgVrRE4esf6VD6-141">
          <mxGeometry relative="1" as="geometry" />
        </mxCell>
        <mxCell id="LKASRwjgVrRE4esf6VD6-143" value="" style="ellipse;whiteSpace=wrap;html=1;" vertex="1" parent="1">
          <mxGeometry x="654" y="552" width="80" height="80" as="geometry" />
        </mxCell>
        <mxCell id="LKASRwjgVrRE4esf6VD6-144" value="" style="ellipse;whiteSpace=wrap;html=1;" vertex="1" parent="1">
          <mxGeometry x="1140" y="552" width="80" height="80" as="geometry" />
        </mxCell>
        <mxCell id="LKASRwjgVrRE4esf6VD6-145" value="" style="ellipse;whiteSpace=wrap;html=1;" vertex="1" parent="1">
          <mxGeometry x="761" y="710" width="80" height="80" as="geometry" />
        </mxCell>
        <mxCell id="LKASRwjgVrRE4esf6VD6-148" value="" style="ellipse;whiteSpace=wrap;html=1;" vertex="1" parent="1">
          <mxGeometry x="1142.5" y="554.5" width="75" height="75" as="geometry" />
        </mxCell>
        <mxCell id="LKASRwjgVrRE4esf6VD6-149" value="C" style="text;html=1;align=center;verticalAlign=middle;whiteSpace=wrap;rounded=0;fontSize=16;" vertex="1" parent="1">
          <mxGeometry x="771" y="451" width="60" height="30" as="geometry" />
        </mxCell>
        <mxCell id="LKASRwjgVrRE4esf6VD6-150" value="N" style="text;html=1;align=center;verticalAlign=middle;whiteSpace=wrap;rounded=0;fontSize=16;" vertex="1" parent="1">
          <mxGeometry x="1042" y="451" width="60" height="30" as="geometry" />
        </mxCell>
        <mxCell id="LKASRwjgVrRE4esf6VD6-151" value="M&lt;span style=&quot;color: rgba(0, 0, 0, 0); font-family: monospace; font-size: 0px; text-align: start; text-wrap: nowrap;&quot;&gt;%3CmxGraphModel%3E%3Croot%3E%3CmxCell%20id%3D%220%22%2F%3E%3CmxCell%20id%3D%221%22%20parent%3D%220%22%2F%3E%3CmxCell%20id%3D%222%22%20value%3D%22N%22%20style%3D%22text%3Bhtml%3D1%3Balign%3Dcenter%3BverticalAlign%3Dmiddle%3BwhiteSpace%3Dwrap%3Brounded%3D0%3BfontSize%3D16%3B%22%20vertex%3D%221%22%20parent%3D%221%22%3E%3CmxGeometry%20x%3D%22-389%22%20y%3D%22438%22%20width%3D%2260%22%20height%3D%2230%22%20as%3D%22geometry%22%2F%3E%3C%2FmxCell%3E%3C%2Froot%3E%3C%2FmxGraphModel%3E&lt;/span&gt;" style="text;html=1;align=center;verticalAlign=middle;whiteSpace=wrap;rounded=0;fontSize=16;" vertex="1" parent="1">
          <mxGeometry x="914" y="582" width="60" height="30" as="geometry" />
        </mxCell>
        <mxCell id="LKASRwjgVrRE4esf6VD6-152" value="F" style="text;html=1;align=center;verticalAlign=middle;whiteSpace=wrap;rounded=0;fontSize=16;" vertex="1" parent="1">
          <mxGeometry x="1150" y="577" width="60" height="30" as="geometry" />
        </mxCell>
        <mxCell id="LKASRwjgVrRE4esf6VD6-153" value="V" style="text;html=1;align=center;verticalAlign=middle;whiteSpace=wrap;rounded=0;fontSize=16;" vertex="1" parent="1">
          <mxGeometry x="664" y="577" width="60" height="30" as="geometry" />
        </mxCell>
        <mxCell id="LKASRwjgVrRE4esf6VD6-154" value="X" style="text;html=1;align=center;verticalAlign=middle;whiteSpace=wrap;rounded=0;fontSize=16;" vertex="1" parent="1">
          <mxGeometry x="771" y="735" width="60" height="30" as="geometry" />
        </mxCell>
        <mxCell id="LKASRwjgVrRE4esf6VD6-159" value="1" style="text;html=1;align=center;verticalAlign=middle;resizable=0;points=[];autosize=1;strokeColor=none;fillColor=none;fontSize=16;" vertex="1" parent="1">
          <mxGeometry x="849.5" y="641.5" width="27" height="31" as="geometry" />
        </mxCell>
        <mxCell id="LKASRwjgVrRE4esf6VD6-160" value="^" style="text;html=1;align=center;verticalAlign=middle;resizable=0;points=[];autosize=1;strokeColor=none;fillColor=none;fontSize=16;" vertex="1" parent="1">
          <mxGeometry x="802.5" y="562.5" width="26" height="31" as="geometry" />
        </mxCell>
        <mxCell id="LKASRwjgVrRE4esf6VD6-161" value="^" style="text;html=1;align=center;verticalAlign=middle;resizable=0;points=[];autosize=1;strokeColor=none;fillColor=none;fontSize=16;" vertex="1" parent="1">
          <mxGeometry x="1062.5" y="565.5" width="26" height="31" as="geometry" />
        </mxCell>
        <mxCell id="LKASRwjgVrRE4esf6VD6-162" value="1" style="text;html=1;align=center;verticalAlign=middle;resizable=0;points=[];autosize=1;strokeColor=none;fillColor=none;fontSize=16;" vertex="1" parent="1">
          <mxGeometry x="982" y="494" width="27" height="31" as="geometry" />
        </mxCell>
        <mxCell id="LKASRwjgVrRE4esf6VD6-163" value="0" style="text;html=1;align=center;verticalAlign=middle;resizable=0;points=[];autosize=1;strokeColor=none;fillColor=none;fontSize=16;" vertex="1" parent="1">
          <mxGeometry x="857.5" y="490.5" width="27" height="31" as="geometry" />
        </mxCell>
        <mxCell id="LKASRwjgVrRE4esf6VD6-164" value="0" style="text;html=1;align=center;verticalAlign=middle;resizable=0;points=[];autosize=1;strokeColor=none;fillColor=none;fontSize=16;" vertex="1" parent="1">
          <mxGeometry x="906.5" y="440.5" width="27" height="31" as="geometry" />
        </mxCell>
        <mxCell id="LKASRwjgVrRE4esf6VD6-165" value="" style="endArrow=classic;html=1;rounded=0;fontSize=12;startSize=8;endSize=8;curved=1;entryX=0.072;entryY=0.172;entryDx=0;entryDy=0;entryPerimeter=0;" edge="1" parent="1" target="LKASRwjgVrRE4esf6VD6-143">
          <mxGeometry width="50" height="50" relative="1" as="geometry">
            <mxPoint x="599" y="507" as="sourcePoint" />
            <mxPoint x="627" y="538" as="targetPoint" />
          </mxGeometry>
        </mxCell>
        <mxCell id="LKASRwjgVrRE4esf6VD6-166" value="После удаления эквивалентных состояний" style="text;html=1;align=center;verticalAlign=middle;whiteSpace=wrap;rounded=0;fontSize=25;" vertex="1" parent="1">
          <mxGeometry x="556" y="246" width="202" height="81" as="geometry" />
        </mxCell>
        <mxCell id="LKASRwjgVrRE4esf6VD6-168" value="&lt;h1 style=&quot;margin-top: 0px;&quot;&gt;Правила&lt;/h1&gt;&lt;h1 style=&quot;margin-top: 0px;&quot;&gt;V -&amp;gt; ^M&lt;/h1&gt;&lt;h1 style=&quot;margin-top: 0px;&quot;&gt;M -&amp;gt; ^F&lt;/h1&gt;&lt;h1 style=&quot;margin-top: 0px;&quot;&gt;M -&amp;gt; 0C&lt;/h1&gt;&lt;h1 style=&quot;margin-top: 0px;&quot;&gt;M -&amp;gt; 1X&lt;/h1&gt;&lt;h1 style=&quot;margin-top: 0px;&quot;&gt;C -&amp;gt; 0N&lt;/h1&gt;&lt;h1 style=&quot;margin-top: 0px;&quot;&gt;N -&amp;gt; 1M&lt;/h1&gt;&lt;h1 style=&quot;margin-top: 0px;&quot;&gt;&lt;br&gt;&lt;/h1&gt;" style="text;html=1;whiteSpace=wrap;overflow=hidden;rounded=0;" vertex="1" parent="1">
          <mxGeometry x="744" y="966" width="157" height="328" as="geometry" />
        </mxCell>
      </root>
    </mxGraphModel>
  </diagram>
</mxfile>
